# Blender 4.5.1 LTS
# www.blender.org
mtllib Grass.mtl
o Grass
v -3.597874 -0.185300 1.635150
v -3.592376 -0.185300 2.432870
v -3.106952 0.443485 1.631767
v -3.101454 0.443485 2.429487
v -3.913850 -0.135668 2.066540
v -3.152982 -0.135668 1.826819
v -4.073813 0.458489 1.558822
v -3.312944 0.458489 1.319102
v -3.273267 -0.174936 2.255420
v -3.835004 -0.248454 1.693785
v -3.615498 0.499406 2.509442
v -4.177234 0.425888 1.947806
vn -0.7882 0.6154 0.0054
vn 0.2238 0.6673 0.7104
vn 0.5658 0.5263 -0.6348
vt 0.000000 0.000000
vt 1.000000 0.000000
vt 1.000000 1.000000
vt 0.000000 1.000000
s 0
usemtl Material.001
f 1/1/1 2/2/1 4/3/1 3/4/1
f 5/1/2 6/2/2 8/3/2 7/4/2
f 9/1/3 10/2/3 12/3/3 11/4/3
