# Blender 4.5.1 LTS
# www.blender.org
mtllib road.mtl
o Cube
v -0.754907 0.043004 0.618316
v -0.754907 0.080461 0.618316
v -0.754907 0.043004 -0.618316
v -0.754907 0.080461 -0.618316
v 0.706934 0.043004 0.618316
v 0.706934 0.080461 0.618316
v 0.706934 0.043004 -0.618316
v 0.706934 0.080461 -0.618316
v -0.754907 0.043004 -0.585962
v -0.754907 0.043004 0.585962
v 0.706934 0.043004 0.585962
v 0.706934 0.043004 -0.585962
v -0.754907 0.061131 0.587611
v -0.754907 0.060092 0.584013
v -0.754907 0.058144 0.585962
v -0.754907 0.060092 -0.584013
v -0.754907 0.061131 -0.587611
v -0.754907 0.058144 -0.585962
v 0.706934 0.061131 -0.587611
v 0.706934 0.060092 -0.584013
v 0.706934 0.058144 -0.585962
v 0.706934 0.060092 0.584013
v 0.706934 0.061131 0.587611
v 0.706934 0.058144 0.585962
v -0.754907 0.060092 0.543025
v -0.754907 0.060092 0.526741
v -0.754907 0.060092 -0.526741
v -0.754907 0.060092 -0.543025
v 0.706934 0.060092 0.543025
v 0.706934 0.060092 0.526741
v 0.706934 0.060092 -0.526741
v 0.706934 0.060092 -0.543025
v 0.050741 0.060580 0.000000
v -0.022237 0.060580 0.000000
v -0.057570 0.060580 0.142223
v -0.057570 0.060580 -0.142223
v -0.106878 0.060580 0.142223
v -0.106878 0.060580 -0.142223
vn -0.0000 -0.0000 -1.0000
vn -0.0000 -0.0000 1.0000
vn -0.0000 -1.0000 -0.0000
vn -1.0000 -0.0000 -0.0000
vn 1.0000 -0.0000 -0.0000
vn -0.0000 0.9608 0.2773
vn -0.0000 0.9608 -0.2773
vn -0.0000 0.8463 -0.5328
vn -0.0000 1.0000 -0.0000
vn -0.0000 0.8463 0.5328
vt 0.375000 0.250000
vt 0.625000 0.250000
vt 0.625000 0.500000
vt 0.375000 0.500000
vt 0.375000 0.750000
vt 0.625000 0.750000
vt 0.625000 1.000000
vt 0.375000 1.000000
vt 0.125000 0.666667
vt 0.375000 0.666667
vt 0.125000 0.750000
vt 0.125000 0.500000
vt 0.375000 0.583333
vt 0.125000 0.583333
vt 0.625000 0.079107
vt 0.625000 0.083472
vt 0.596489 0.083333
vt 0.625000 0.166528
vt 0.625000 0.170893
vt 0.596489 0.166667
vt 0.625000 0.579085
vt 0.625000 0.583472
vt 0.596489 0.583333
vt 0.625000 0.666528
vt 0.625000 0.670915
vt 0.596489 0.666667
vt 0.875000 0.583472
vt 0.875000 0.579085
vt 0.875000 0.670915
vt 0.875000 0.666528
vt 0.375000 0.000000
vt 0.625000 0.000000
vt 0.375000 0.083333
vt 0.875000 0.750000
vt 0.625000 0.100083
vt 0.625000 0.116694
vt 0.625000 0.133306
vt 0.625000 0.149917
vt 0.375000 0.166667
vt 0.625000 0.649917
vt 0.875000 0.649917
vt 0.875000 0.500000
vt 0.625000 0.600083
vt 0.625000 0.616694
vt 0.625000 0.633306
vt 0.875000 0.600083
vt 0.875000 0.616694
vt 0.875000 0.633306
vt 0.000000 0.000000
s 0
usemtl Material.001
f 13/15/4 14/16/4 15/17/4
f 16/18/4 17/19/4 18/20/4
f 29/40/9 25/41/9 14/30/9 22/24/9
f 20/22/9 16/27/9 28/46/9 32/43/9
f 31/44/9 27/47/9 26/48/9 30/45/9
usemtl Material.002
f 3/1/1 4/2/1 8/3/1 7/4/1
f 5/5/2 6/6/2 2/7/2 1/8/2
f 10/9/3 11/10/3 5/5/3 1/11/3
f 3/12/3 7/4/3 12/13/3 9/14/3
f 9/14/3 12/13/3 11/10/3 10/9/3
f 1/31/4 2/32/4 13/15/4 15/17/4 10/33/4
f 23/25/8 13/29/8 2/34/8 6/6/8
f 10/33/4 15/17/4 14/16/4 25/35/4 26/36/4 27/37/4 28/38/4 16/18/4 18/20/4 9/39/4
f 8/3/10 4/42/10 17/28/10 19/21/10
f 9/39/4 18/20/4 17/19/4 4/2/4 3/1/4
f 7/4/5 8/3/5 19/21/5 21/23/5 12/13/5
f 12/13/5 21/23/5 20/22/5 32/43/5 31/44/5 30/45/5 29/40/5 22/24/5 24/26/5 11/10/5
f 11/10/5 24/26/5 23/25/5 6/6/5 5/5/5
usemtl Material.003
f 19/21/5 20/22/5 21/23/5
f 22/24/5 23/25/5 24/26/5
f 16/27/6 20/22/6 19/21/6 17/28/6
f 13/29/7 23/25/7 22/24/7 14/30/7
usemtl Material
f 32/43/9 28/46/9 27/47/9 31/44/9
f 30/45/9 26/48/9 25/41/9 29/40/9
f 34/49/3 38/49/3 36/49/3 33/49/3
f 34/49/3 33/49/3 35/49/3 37/49/3
